# xmcd CD database file
#
# Track frame offsets:
#	150
#	23137
#	46987
#	69970
#
# Disc length: 1244 seconds
#
# Revision: 18
# Processed by: cddbd v1.5.2PL0 Copyright (c) Steve Scherf et al.
# Submitted via: CDex 1.70beta2
#
DISCID=2904da04
DTITLE=菅野よう子 - ライオン
DYEAR=2008
DGENRE=Anime
TTITLE0=雫
TTITLE1=ノーザンクロス/シェリル・ノーム starring May'n
TTITLE2=ライオン without vocals
TTITLE3=ノーザンクロス without vocals
EXTD=YEAR: 2008
EXTT0=
EXTT1=
EXTT2=
EXTT3=
PLAYORDER=
